# xmcd
#
# Track frame offsets:
#	150
#	17941
#	35093
#	51449
#	69311
#	84479
#	102364
#	122041
#	139180
#	160725
#	173422
#
# Disc length: 2543 seconds
#
# Revision: 2
# Processed by: cddbd v1.5.2PL0 Copyright (c) Steve Scherf et al.
# Submitted via: audiograbber 1.83.01
#
DISCID=9009ed0b
DTITLE=Rob Sonic - Sabotage Gigante
DYEAR=2007
DGENRE=Hip-Hop
TTITLE0=Teeth Eat Her
TTITLE1=Brand New Vandals
TTITLE2=The Over Under
TTITLE3=Mother Of All Bombs
TTITLE4=Ready Aim Shoot
TTITLE5=Rock The Convoy
TTITLE6=Smoke If You Got'um (w Aesop Rock)
TTITLE7=Dead As Disco
TTITLE8=Fat Man And Little Boy
TTITLE9=Spy Hunter (w Busdriver)
TTITLE10=A Cold Cold War
EXTD=www.RapMusicGuide.com
EXTT0=
EXTT1=
EXTT2=
EXTT3=
EXTT4=
EXTT5=
EXTT6=
EXTT7=
EXTT8=
EXTT9=
EXTT10=
PLAYORDER=
